<svg version="1.0" xmlns="http://www.w3.org/2000/svg" width="346.667" height="346.667" viewBox="0 0 260 260"><path d="M105.3 35.4c-.4.7-2.6 1.6-4.7 1.9-2.2.4-4.3 1.2-4.7 1.9-.8 1.3-1.2 1.4-5 1.7-1.1 0-1.8.5-1.4 1 .3.6-1 1.3-3 1.7-2 .3-3.5 1.2-3.5 2 0 .9-1.1 1.4-3 1.4-2 0-3 .5-3 1.5 0 .8-.7 1.5-1.5 1.5s-1.5.7-1.5 1.5c0 1-1 1.5-2.9 1.5-2.1 0-3 .6-3.4 2.1-.3 1.2-1 1.8-1.5 1.5-.5-.3-1.2.4-1.5 1.5-.3 1.2-1 1.8-1.7 1.4-.7-.4-1.4.2-1.7 1.4-.3 1.2-1.2 2.1-2 2.1s-1.1.5-.8 1.1c.4.6-.2 1.3-1.4 1.6-1.5.4-2.1 1.3-2.1 3.4 0 1.9-.5 2.9-1.5 2.9-.8 0-1.5.7-1.5 1.5s-.7 1.5-1.5 1.5c-1 0-1.5 1-1.5 3 0 1.9-.5 3-1.4 3-.8 0-1.7 1.3-2.1 2.9-.3 1.6-1.3 3.2-2.1 3.5-.8.3-1.4 1.9-1.4 3.6 0 2-.5 3-1.5 3-1.1 0-1.5 1.2-1.5 4.5s-.4 4.5-1.5 4.5c-1.3 0-1.5 2.5-1.5 16.8v16.8l9.6 4.3c14.7 6.5 17.2 7.3 21.1 6.2 7.6-2.1 12.5-8.2 23.7-29.3 3.1-5.9 6.2-11 6.9-11.4.9-.5.9-.3 0 .7-2.9 3-1.5 3.9 6.1 3.9h7.5l.4-3.3c.3-2.5.4-2.2.5 1.4.2 5.3-1.7 16.4-5.4 31.8-2 8.1-2.3 10.9-1.5 12.8 1.3 2.8 4 3 7.4.3 3.2-2.5 4.7-2.5 4.7 0 0 4.3-9.7 12.5-16.7 14.1-4.4.9-9.6-.9-11.2-3.9-1.9-3.6-1.2-11.2 1.9-20.8 3.4-10.8 4.6-16.9 3.3-17.7-.5-.3-4 4.2-7.8 10-7.8 11.7-14.8 18.7-20.4 20.4-4.6 1.4-12-.5-22.3-5.7-3.7-1.9-7-3.4-7.3-3.4-.3 0-.5 1.3-.5 3 0 2 .5 3 1.5 3 1.1 0 1.5 1.2 1.5 4.5s.4 4.5 1.5 4.5c1 0 1.5 1 1.5 2.9 0 2.1.6 3 2.1 3.4 1.7.5 2.1 1.1 1.6 3.3-.3 2 0 2.8 1.4 3.1 1.3.4 1.9 1.4 1.9 3.4 0 1.9.5 2.9 1.5 2.9.8 0 1.5.7 1.5 1.5s.7 1.5 1.5 1.5 1.5.9 1.5 2 .7 2 1.5 2c1 0 1.5 1 1.5 3s-.5 3-1.5 3c-.8 0-1.5-.7-1.5-1.5 0-1.7-4.5-2.1-5.5-.5-.3.5.1 1 .9 1 .9 0 1.6.7 1.6 1.5s.7 1.5 1.5 1.5 1.5.7 1.5 1.5.9 1.5 2 1.5 2 .6 2 1.4c0 .8.7 1.6 1.5 2 .8.3 1.5 1.2 1.5 2.1 0 .8.7 1.5 1.5 1.5s1.5.7 1.5 1.5.7 1.5 1.5 1.5 1.5.7 1.5 1.5c0 1 1 1.5 3 1.5s3 .5 3 1.5c0 .8.7 1.5 1.5 1.5s1.5.6 1.5 1.4c0 .9 1.2 1.6 3.3 1.8 1.9.2 3.1.8 2.9 1.5-.1.9 1 1.3 3.3 1.3s3.5.5 3.5 1.4c0 .8 1.6 1.5 4.1 1.9 2.3.3 4.5 1 4.8 1.5.3.5 4.1 1.3 8.3 1.7 5.1.4 7.7 1.1 7.5 1.8-.1.9 3.7 1.2 13.8 1.2 10.2 0 13.9-.3 13.8-1.2-.2-.8 2.4-1.4 7.7-1.9 4.4-.3 7.7-1 7.4-1.5-.2-.4 1.8-1.1 4.6-1.5 3.2-.4 5-1.1 5-2 0-.9 1.1-1.4 3-1.4 2 0 3-.5 3-1.5s1.1-1.5 3.5-1.5 3.5-.5 3.5-1.5c0-.8.7-1.5 1.5-1.5s1.5-.7 1.5-1.5c0-1 1-1.5 3-1.5s3-.5 3-1.5c0-.8.7-1.5 1.5-1.5s1.5-.7 1.5-1.5.7-1.5 1.5-1.5 1.5-.6 1.5-1.3c0-.7 1.4-2.5 3.1-4 1.7-1.5 2.7-2.7 2.3-2.7-.5-.1.2-.7 1.6-1.5 1.6-.9 1.9-1.5 1-1.5-.9-.1-.5-.5.8-1.1 1.3-.5 2.1-1.3 1.8-1.8-.3-.5.3-1.1 1.4-1.4 1.3-.3 2-1.4 2-3 0-1.4.7-2.7 1.5-3.1.8-.3 1.5-1.2 1.5-2.1 0-.8.6-1.4 1.3-1.3.7.2 1.3-1 1.5-3 .2-2 .9-3.2 1.8-3.2s1.4-1 1.4-2.9c0-1.6.6-3.1 1.5-3.5.9-.3 1.5-1.8 1.5-3.6 0-1.9.5-2.9 1.3-2.8.8.2 1.3-1.3 1.5-4.5.2-3.3.7-4.7 1.8-4.7.9 0 1.4-1.1 1.4-3.3 0-3.1-.4-3.5-9.4-7.9-11.7-5.9-17.3-7.3-23.9-5.8-6.7 1.4-9 3.2-21.2 17-11.6 13-17.1 16.9-21.8 15.1-3.5-1.4-5.9-5.2-6.8-11.3-.9-5.8-2.3-7.8-5.4-7.8-3.7 0-4.8 2.3-4.2 9 .7 7.1-.6 9-6.2 9-6.3 0-7.5-1.6-6.8-9.1.8-8.4 4.6-22.8 9.7-36.4 5.1-13.8 15.9-38.3 17.2-39.1.6-.4.5.2-.1 1.4-.6 1.1-1.1 2.2-1.1 2.4 0 .2 2.4.2 5.2.2 4.8-.1 5.4-.4 6.5-3 .7-1.6 1.2-2.3 1.3-1.5 0 .8-1.2 3.4-2.6 5.8-4.2 7.3-8.3 18.1-11.5 30.1-3.2 12.4-3.7 19.2-1.5 19.2 1.4 0 15.2-14 18.1-18.4 4-6 14.2-8.7 16.9-4.4 1.8 2.9-.3 4.9-10.6 10.3-10.8 5.6-12.4 6.8-15.6 10.9-2.8 3.6-2.8 8.8-.1 13.2 2 3.2 5.5 6.4 7.1 6.4.4 0 2.2-2.8 4-6.2 6.7-12.5 17.2-21 27.8-22.4 7.7-1 20.6 2.8 30.8 9.1l4.2 2.6v-17.5c0-15-.2-17.6-1.5-17.6-1 0-1.5-1.1-1.6-3.5-.2-5.3-.4-6-1.6-5.8-.6.1-1.4-1.3-1.7-3.2-.4-1.9-1.1-3.5-1.6-3.5-.4 0-1.1-1.4-1.5-3-.4-1.7-1-3-1.5-3s-1.1-1.4-1.5-3c-.4-1.7-1.3-3-2.1-3s-1.4-.6-1.4-1.4c0-.8-.7-1.6-1.5-2-.8-.3-1.5-1.7-1.5-3.1 0-1.6-.6-2.5-1.5-2.5-.8 0-1.5-.7-1.5-1.5s-.7-1.5-1.5-1.5-1.5-.7-1.5-1.5-.7-1.5-1.6-1.5c-.9 0-1.8-.9-2.1-2-.3-1.1-1-1.7-1.5-1.4-.5.3-1.2-.3-1.5-1.5-.4-1.4-1.3-2.1-2.9-2.1-1.4 0-2.7-.7-3-1.5-.4-.8-1.2-1.5-2-1.5s-1.4-.7-1.4-1.5c0-1-1-1.5-3-1.5-1.9 0-3-.5-3-1.4 0-.8-1.2-1.7-2.7-2.1-1.5-.3-3-1-3.3-1.5-.3-.5-1.8-1-3.3-1.2-1.6-.3-3.2-1-3.6-1.6-.4-.7-2.5-1.5-4.7-1.9-2.1-.3-4.3-1.2-4.7-1.9-.6-1-6.3-1.3-26.2-1.3s-25.6.3-26.2 1.3zm46.6 7.1c2.5.8 5.3 1.5 6.3 1.5s2.9.7 4.2 1.5c1.2.8 3.4 1.6 4.9 1.7 1.5.1 2.7.5 2.7.9s2.1 1.8 4.8 3c2.6 1.3 5.6 3.1 6.6 4.1 1.1 1 2.4 1.8 2.8 1.8 1.2 0 16 14.8 19 19 1.4 1.9 2.3 4.1 2.1 4.8-.3.7.1 1.1.7 1 .7-.2 1.5.3 1.7.9.7 1.8-2.2 1.6-3.7-.2s-3.4-2-2.4-.3c.5.9.2.8-.9-.1-1.5-1.2-1.7-1.2-1 .4.5 1.5.3 1.5-1.5-.3-1.2-1.2-2.2-2.4-2.2-2.7 0-.7-10.6-11.5-11.3-11.5-.3 0-2.1-1.4-3.9-3-1.8-1.7-3.6-3-4-3-.4 0-2.7-1.4-5.1-3-2.5-1.7-5.1-3-5.9-3-.8 0-2.3-.7-3.4-1.5-1-.8-2.9-1.5-4.2-1.5-1.3 0-3.5-.6-5-1.4-2.5-1.2-14.7-2.9-21.7-2.9-6.9 0-19 1.7-21.4 2.9-1.4.8-3.6 1.4-4.8 1.4-1.2 0-3.4.7-5 1.4-1.5.8-3.5 1.8-4.3 2.1-.8.3-2.8 1.4-4.5 2.5-1.6 1.1-3.9 2.4-5 2.9s-3.3 2.1-4.8 3.5-3 2.6-3.3 2.6C77.8 68 67 78.8 67 79.5c0 .3-.8 1.3-1.8 2.3-1.7 1.7-2 1.7-2.9.3-1-1.5-1.2-1.4-3 .1-2.3 2.1-4.7 2.4-4 .5.2-.6.9-1.1 1.5-1 .5.1 1.2-1.1 1.5-2.6.7-3.4 16.5-19.9 21.5-22.5 1.7-.9 3.2-2 3.2-2.4 0-.4 2.3-1.7 5-3 2.8-1.3 5-2.6 5-3 0-.4 1.2-.9 2.6-1 1.4-.1 3.8-.8 5.2-1.6 9.6-4.9 39.9-6.8 51.1-3.1zm8.8 36.2c-.3 1-.5.2-.5-1.7s.2-2.7.5-1.8c.2 1 .2 2.6 0 3.5zm-9.9-.2c-.6 1.4-1.3 2.3-1.5 2.1-.5-.5 1.5-4.6 2.2-4.6.3 0-.1 1.1-.7 2.5zM58 176c0 .5-.4 1-1 1-.5 0-1-.5-1-1 0-.6.5-1 1-1 .6 0 1 .4 1 1zm9.5 5.1c.5 2.3.9 2.8 1.6 1.8.7-1.1.9-1 .9.3 0 1 .6 1.8 1.3 1.8.6.1 2.3 1.4 3.7 3 1.3 1.7 3 3 3.8 3 .7 0 1 .5.7 1.1-.4.6.2 1.3 1.4 1.6 1.2.3 2.1 1.2 2.1 1.9 0 .8.7 1.4 1.6 1.4.8 0 2.2.7 3 1.5.9.8 2.4 1.5 3.5 1.5 1 0 1.8.6 1.6 1.2-.1.8 1.1 1.4 3.1 1.6 2 .2 3.2.9 3.2 1.8 0 1 1.3 1.4 4.5 1.4 3.3 0 4.5.4 4.5 1.5s1.2 1.5 4.9 1.5c7.8 0 14.9 1.2 12.6 2.1-1.2.4 1.3.8 6 .8s7.2-.4 6-.8c-2.3-.9 4.8-2.1 12.6-2.1 3.7 0 4.9-.4 4.9-1.5s1.2-1.5 4.5-1.5 4.5-.4 4.5-1.5c0-1 1-1.5 3-1.5 1.7 0 3.3-.6 3.6-1.4.3-.8 1.6-1.7 3-2 1.3-.4 2.4-1.1 2.4-1.6 0-.6.9-1 2-1s2-.6 2-1.4c0-.7.9-1.6 2.1-1.9 1.2-.3 1.8-1 1.4-1.6-.3-.6.1-1.1 1-1.1.8 0 1.8-.7 2.1-1.5.4-.8 1.2-1.5 2-1.5s1.4-.7 1.4-1.5.7-1.5 1.5-1.5 1.5-.8 1.5-1.8c0-1.4.2-1.5 1-.2.7 1.2 1.1.8 1.6-1.8.6-3 .9-3.2 5-3.2 3.2 0 4.4.4 4.4 1.5 0 .8-.6 1.5-1.4 1.5-.8 0-1.7 1.1-2 2.5-.7 2.7-3.9 6.5-5.6 6.5-.5 0-1 .7-1 1.5s-.7 1.5-1.5 1.5-1.5.4-1.5 1c0 1.3-3.7 5-5 5-.5 0-1 .8-1 1.7 0 1.4-.2 1.5-.9.5-.7-1.1-.9-1.1-1.4.2-.4.9-1.3 1.6-2.2 1.6-.8 0-1.5.7-1.5 1.5 0 1-1 1.5-3 1.5s-3 .5-3 1.5c0 1.3-2.5 2.1-5.2 1.6-.5 0-.8.6-.8 1.4 0 1-1.1 1.5-3.5 1.5-2.3 0-3.5.5-3.5 1.4 0 .9-1.8 1.5-5.7 1.8-3.1.3-5.9 1-6.1 1.6-.3.9-5.6 1.2-17.8 1.2-9.8 0-17.3-.4-17-.9.6-1-4.1-2.1-9-2.1-2.2 0-3.3-.4-3.2-1.3.2-.7-1.1-1.3-3.4-1.5-2.7-.2-3.8-.8-3.9-2 0-1.4-.2-1.3-.9.3-.7 1.7-.9 1.7-.9.2-.1-1-.9-1.7-2.1-1.7-1.1 0-2-.7-2-1.5 0-1-1-1.5-3-1.5-1.9 0-3-.5-3-1.4 0-.8-1.1-1.7-2.5-2-1.4-.4-2.3-1.1-2-1.6.3-.5-.6-1.2-2-1.6-1.4-.3-2.5-1.2-2.5-2s-.7-1.4-1.5-1.4-1.5-.7-1.5-1.5-.7-1.5-1.5-1.5-1.5-.7-1.5-1.5-.7-1.5-1.5-1.5-1.5-.7-1.5-1.5-.6-1.5-1.4-1.5c-.8 0-1.7-1.4-2.1-3-.4-1.7-1.1-3-1.6-3s-.9-.7-.9-1.5c0-1.1 1.1-1.5 3.9-1.5 3.6 0 4 .3 4.6 3.1zM61 192c0 .5-.4 1-1 1-.5 0-1-.5-1-1 0-.6.5-1 1-1 .6 0 1 .4 1 1zm0 3.5c0 .8-.7 1.5-1.5 1.5s-1.5-.7-1.5-1.5.7-1.5 1.5-1.5 1.5.7 1.5 1.5zm3-.5c0 .5-.4 1-1 1-.5 0-1-.5-1-1 0-.6.5-1 1-1 .6 0 1 .4 1 1zm3 3.5c0 .8.7 1.5 1.5 1.5s1.5.5 1.5 1.1c0 .6-.6.9-1.4.6-.8-.3-1.7-.1-2 .6-.3.8-.8.6-1.6-.6-.6-.9-1.8-1.7-2.5-1.7-.8 0-1.5-.7-1.5-1.5 0-1 1-1.5 3-1.5s3 .5 3 1.5zm7 5.9c0 .8 1.4 1.7 3 2.1 1.7.4 2.8 1 2.5 1.5-.3.4 1.1 1.1 3 1.4 1.9.4 3.5 1.1 3.5 1.6 0 .6-.3 1-.7 1-.5 0-1.8.3-3 .6-1.8.5-2.5.1-3.2-1.9-.7-1.8-1.5-2.4-2.9-2-2.1.5-6.2-2.4-6.2-4.4 0-.7.9-1.3 2-1.3s2 .6 2 1.4zm15.6 8.7c1 1.8-1.1 3.1-4 2.3-3-.7-3.4-2-.8-2.7 3-.8 4.1-.7 4.8.4zm8.4 3.8c0 1-2.4 2.1-4.6 2.1-.8 0-1.4-.7-1.4-1.5 0-1 1-1.5 3-1.5 1.7 0 3 .4 3 .9zm7 3.6c0 1.9-5.7 1.7-6.4-.2-.4-.9.5-1.3 2.9-1.3 2.5 0 3.5.5 3.5 1.5zm40.8 2.7c-.6 1.8-34 1.8-34.5 0-.4-.9 3.5-1.2 17.2-1.2s17.6.3 17.3 1.2z"/></svg>