<svg width="154" height="106" fill="none" xmlns="http://www.w3.org/2000/svg"><g filter="url(#filter0_ii_428_1270)"><path d="M129.938 53c0 29.237-23.701 52.938-52.938 52.938-29.237 0-52.938-23.701-52.938-52.938C24.063 23.763 47.764.062 77 .062c29.237 0 52.938 23.701 52.938 52.938zm-102.17 0c0 27.19 22.042 49.232 49.232 49.232 27.19 0 49.232-22.042 49.232-49.232 0-27.19-22.042-49.232-49.232-49.232C49.81 3.768 27.768 25.81 27.768 53z" fill="url(#paint0_linear_428_1270)"/></g><g filter="url(#filter1_i_428_1270)"><circle cx="77" cy="53" r="48.125" fill="#1AB0BF"/></g><path fill-rule="evenodd" clip-rule="evenodd" d="M38.566 30.177a1.716 1.716 0 01-.155.143l.155-.143z" fill="url(#paint1_linear_428_1270)"/><path fill-rule="evenodd" clip-rule="evenodd" d="M117.038 30.141c.055.056.107.104.156.143a17.285 17.285 0 01-.156-.143z" fill="url(#paint2_linear_428_1270)"/><path d="M77.802 6.48a45.964 45.964 0 00-39.391 22.146c-1.04 1.867-3.12 6.07-3.12 7.947 1.444-4.6 2.914-8.025 6.167-11.464-.676 1.378-2.037 4.194-2.892 5.068 1.481-1.365 3.985-3.839 4.832-5.24-.586 1.375-1.782 3.666-3.514 5.643 1.412-1.546 4.012-4.48 4.924-5.798-2.411 4.352-6.765 12.11-7.91 13.78l2.586-3.552c6.568-14.515 21.254-24.622 38.318-24.622 17.047 0 31.721 10.087 38.298 24.578l2.606 3.561c-1.145-1.67-5.498-9.429-7.91-13.78.912 1.318 3.512 4.252 4.924 5.798-1.731-1.978-2.928-4.269-3.514-5.644.847 1.401 3.351 3.876 4.832 5.24-.854-.873-2.216-3.69-2.892-5.068 3.254 3.44 4.723 6.864 6.167 11.464 0-1.876-2.089-6.06-3.129-7.926A45.963 45.963 0 0077.802 6.479z" fill="url(#paint3_linear_428_1270)"/><g filter="url(#filter2_ii_428_1270)"><path fill-rule="evenodd" clip-rule="evenodd" d="M38.566 30.177a1.716 1.716 0 01-.155.143l.155-.143z" fill="url(#paint4_linear_428_1270)"/><path fill-rule="evenodd" clip-rule="evenodd" d="M117.038 30.141c.055.056.107.104.156.143a17.285 17.285 0 01-.156-.143z" fill="url(#paint5_linear_428_1270)"/><path d="M77.802 6.48a45.964 45.964 0 00-39.391 22.146c-1.04 1.867-3.12 6.07-3.12 7.947 1.444-4.6 2.914-8.025 6.167-11.464-.676 1.378-2.037 4.194-2.892 5.068 1.481-1.365 3.985-3.839 4.832-5.24-.586 1.375-1.782 3.666-3.514 5.643 1.412-1.546 4.012-4.48 4.924-5.798-2.411 4.352-6.765 12.11-7.91 13.78l2.586-3.552c6.568-14.515 21.254-24.622 38.318-24.622 17.047 0 31.721 10.087 38.298 24.578l2.606 3.561c-1.145-1.67-5.498-9.429-7.91-13.78.912 1.318 3.512 4.252 4.924 5.798-1.731-1.978-2.928-4.269-3.514-5.644.847 1.401 3.351 3.876 4.832 5.24-.854-.873-2.216-3.69-2.892-5.068 3.254 3.44 4.723 6.864 6.167 11.464 0-1.876-2.089-6.06-3.129-7.926A45.963 45.963 0 0077.802 6.479z" fill="url(#paint6_linear_428_1270)"/></g><g filter="url(#filter3_ii_428_1270)"><path fill-rule="evenodd" clip-rule="evenodd" d="M38.566 74.22a1.716 1.716 0 00-.155-.144l.155.143z" fill="url(#paint7_linear_428_1270)"/><path fill-rule="evenodd" clip-rule="evenodd" d="M117.038 74.255c.055-.056.107-.104.156-.143l-.156.143z" fill="url(#paint8_linear_428_1270)"/><path d="M77.802 97.917A45.964 45.964 0 0138.411 75.77c-1.04-1.867-3.12-6.07-3.12-7.947 1.444 4.6 2.914 8.025 6.167 11.464-.676-1.378-2.037-4.194-2.892-5.068 1.481 1.365 3.985 3.839 4.832 5.24-.586-1.375-1.782-3.666-3.514-5.643 1.412 1.546 4.012 4.48 4.924 5.798-2.411-4.352-6.765-12.11-7.91-13.78l2.586 3.552C46.052 83.901 60.739 94.01 77.802 94.01c17.047 0 31.721-10.088 38.298-24.579l2.606-3.561c-1.145 1.67-5.498 9.429-7.91 13.78.912-1.318 3.512-4.252 4.924-5.798-1.731 1.978-2.928 4.269-3.514 5.644.847-1.401 3.351-3.876 4.832-5.24-.854.873-2.216 3.69-2.892 5.068 3.254-3.44 4.723-6.864 6.167-11.464 0 1.876-2.089 6.059-3.129 7.926a45.963 45.963 0 01-39.382 22.132z" fill="url(#paint9_linear_428_1270)"/></g><path d="M5.477 63.47c3.32-2.889 3.662-6.925 4.517-7.795 1.369-1.392 5.858-2.422 12.592.975 4.334 3.19 14.406 9.569 20.017 9.569 7.015 0 15.638-16.494 15.638-16.494 2.034 2.235-2.622 11.986-2.909 15.24-.766 8.714 5.658 7.83 8.965 6.299 9.006-5.846 6.262-9.151 4.312-7.168-3.668 3.73-5.34.313-4.722-1.914 4.722-17.015 5.52-26.793 2.498-26.828-9.581 0-11.908 26.063-23.782 26.063-3.798 0-23.473-11.692-31.07-11.692-6.076 0-10.082 6.24-11.325 9.36-1.164 4.141 2.83 6.507 5.27 4.385z" fill="url(#paint10_linear_428_1270)"/><path d="M72.219 68.367c1.207-14.404 12.283-38.2 17.67-48.298 1.716-3.217 5.73 4.484 1.475 10.68-4.255 6.195-8.475 22.591-7.617 25.193.53 1.609 5.433-4.165 8.612-7.702 5.71-8.544 11.391-4.997 10.327-2.088-1.063 2.91-14.925 4.954-14.925 12.562 0 3.423 4.708 8.284 5.662 5.888 4.913-12.35 13.655-14.662 18.012-14.171 15.543 2.156 12.283 9.345 30.262 9.345 7.651 0 7.034-11.262 10.876-9.345 3.843 1.917-.274 16.156-9.984 16.156s-22.096-11.193-30.193-11.296c-8.097-.102-9.161 4.964-17.876 13.658-6.971 6.955-9.904 1.323-10.498-2.362 0-4.573-2.78-5.237-4.118-3.902-1.475 1.472-.48 2.704-.48 6.777 0 3.17-7.789 3.218-7.205-1.095z" fill="url(#paint11_linear_428_1270)"/><defs><linearGradient id="paint0_linear_428_1270" x1="77" y1=".063" x2="77" y2="105.938" gradientUnits="userSpaceOnUse"><stop stop-color="#FDE69F"/><stop offset="1" stop-color="#D5B75E"/></linearGradient><linearGradient id="paint1_linear_428_1270" x1="77.802" y1="6.479" x2="77.802" y2="38.563" gradientUnits="userSpaceOnUse"><stop stop-color="#FDE69F"/><stop offset="1" stop-color="#D5B75E"/></linearGradient><linearGradient id="paint2_linear_428_1270" x1="77.802" y1="6.479" x2="77.802" y2="38.563" gradientUnits="userSpaceOnUse"><stop stop-color="#FDE69F"/><stop offset="1" stop-color="#D5B75E"/></linearGradient><linearGradient id="paint3_linear_428_1270" x1="77.802" y1="6.479" x2="77.802" y2="38.563" gradientUnits="userSpaceOnUse"><stop stop-color="#FDE69F"/><stop offset="1" stop-color="#D5B75E"/></linearGradient><linearGradient id="paint4_linear_428_1270" x1="77.802" y1="6.479" x2="77.802" y2="38.563" gradientUnits="userSpaceOnUse"><stop stop-color="#FDE69F"/><stop offset="1" stop-color="#D5B75E"/></linearGradient><linearGradient id="paint5_linear_428_1270" x1="77.802" y1="6.479" x2="77.802" y2="38.563" gradientUnits="userSpaceOnUse"><stop stop-color="#FDE69F"/><stop offset="1" stop-color="#D5B75E"/></linearGradient><linearGradient id="paint6_linear_428_1270" x1="77.802" y1="6.479" x2="77.802" y2="38.563" gradientUnits="userSpaceOnUse"><stop stop-color="#FDE69F"/><stop offset="1" stop-color="#D5B75E"/></linearGradient><linearGradient id="paint7_linear_428_1270" x1="77.802" y1="97.917" x2="77.802" y2="65.833" gradientUnits="userSpaceOnUse"><stop stop-color="#FDE69F"/><stop offset="1" stop-color="#D5B75E"/></linearGradient><linearGradient id="paint8_linear_428_1270" x1="77.802" y1="97.917" x2="77.802" y2="65.833" gradientUnits="userSpaceOnUse"><stop stop-color="#FDE69F"/><stop offset="1" stop-color="#D5B75E"/></linearGradient><linearGradient id="paint9_linear_428_1270" x1="77.802" y1="97.917" x2="77.802" y2="65.833" gradientUnits="userSpaceOnUse"><stop stop-color="#FDE69F"/><stop offset="1" stop-color="#D5B75E"/></linearGradient><linearGradient id="paint10_linear_428_1270" x1="35.292" y1="35.354" x2="35.292" y2="72.25" gradientUnits="userSpaceOnUse"><stop stop-color="#D5B75E"/><stop offset="1" stop-color="#FDE69F"/></linearGradient><linearGradient id="paint11_linear_428_1270" x1="113.094" y1="19.313" x2="113.094" y2="72.25" gradientUnits="userSpaceOnUse"><stop stop-color="#D5B75E"/><stop offset="1" stop-color="#FDE69F"/></linearGradient><filter id="filter0_ii_428_1270" x="24.063" y=".063" width="105.875" height="106.264" filterUnits="userSpaceOnUse" color-interpolation-filters="sRGB"><feFlood flood-opacity="0" result="BackgroundImageFix"/><feBlend in="SourceGraphic" in2="BackgroundImageFix" result="shape"/><feColorMatrix in="SourceAlpha" values="0 0 0 0 0 0 0 0 0 0 0 0 0 0 0 0 0 0 127 0" result="hardAlpha"/><feOffset dy=".389"/><feGaussianBlur stdDeviation=".194"/><feComposite in2="hardAlpha" operator="arithmetic" k2="-1" k3="1"/><feColorMatrix values="0 0 0 0 1 0 0 0 0 1 0 0 0 0 1 0 0 0 1 0"/><feBlend in2="shape" result="effect1_innerShadow_428_1270"/><feColorMatrix in="SourceAlpha" values="0 0 0 0 0 0 0 0 0 0 0 0 0 0 0 0 0 0 127 0" result="hardAlpha"/><feOffset dy=".389"/><feComposite in2="hardAlpha" operator="arithmetic" k2="-1" k3="1"/><feColorMatrix values="0 0 0 0 1 0 0 0 0 1 0 0 0 0 1 0 0 0 0.5 0"/><feBlend in2="effect1_innerShadow_428_1270" result="effect2_innerShadow_428_1270"/></filter><filter id="filter1_i_428_1270" x="28.875" y="4.875" width="96.25" height="96.25" filterUnits="userSpaceOnUse" color-interpolation-filters="sRGB"><feFlood flood-opacity="0" result="BackgroundImageFix"/><feBlend in="SourceGraphic" in2="BackgroundImageFix" result="shape"/><feColorMatrix in="SourceAlpha" values="0 0 0 0 0 0 0 0 0 0 0 0 0 0 0 0 0 0 127 0" result="hardAlpha"/><feOffset/><feGaussianBlur stdDeviation="14.769"/><feComposite in2="hardAlpha" operator="arithmetic" k2="-1" k3="1"/><feColorMatrix values="0 0 0 0 0.0932813 0 0 0 0 0.73245 0 0 0 0 0.829167 0 0 0 0.57 0"/><feBlend in2="shape" result="effect1_innerShadow_428_1270"/></filter><filter id="filter2_ii_428_1270" x="35.292" y="6.479" width="85.021" height="32.472" filterUnits="userSpaceOnUse" color-interpolation-filters="sRGB"><feFlood flood-opacity="0" result="BackgroundImageFix"/><feBlend in="SourceGraphic" in2="BackgroundImageFix" result="shape"/><feColorMatrix in="SourceAlpha" values="0 0 0 0 0 0 0 0 0 0 0 0 0 0 0 0 0 0 127 0" result="hardAlpha"/><feOffset dy=".389"/><feGaussianBlur stdDeviation=".194"/><feComposite in2="hardAlpha" operator="arithmetic" k2="-1" k3="1"/><feColorMatrix values="0 0 0 0 1 0 0 0 0 1 0 0 0 0 1 0 0 0 1 0"/><feBlend in2="shape" result="effect1_innerShadow_428_1270"/><feColorMatrix in="SourceAlpha" values="0 0 0 0 0 0 0 0 0 0 0 0 0 0 0 0 0 0 127 0" result="hardAlpha"/><feOffset dy="-.389"/><feComposite in2="hardAlpha" operator="arithmetic" k2="-1" k3="1"/><feColorMatrix values="0 0 0 0 1 0 0 0 0 1 0 0 0 0 1 0 0 0 0.5 0"/><feBlend in2="effect1_innerShadow_428_1270" result="effect2_innerShadow_428_1270"/></filter><filter id="filter3_ii_428_1270" x="35.292" y="65.834" width="85.021" height="32.472" filterUnits="userSpaceOnUse" color-interpolation-filters="sRGB"><feFlood flood-opacity="0" result="BackgroundImageFix"/><feBlend in="SourceGraphic" in2="BackgroundImageFix" result="shape"/><feColorMatrix in="SourceAlpha" values="0 0 0 0 0 0 0 0 0 0 0 0 0 0 0 0 0 0 127 0" result="hardAlpha"/><feOffset dy=".389"/><feGaussianBlur stdDeviation=".194"/><feComposite in2="hardAlpha" operator="arithmetic" k2="-1" k3="1"/><feColorMatrix values="0 0 0 0 1 0 0 0 0 1 0 0 0 0 1 0 0 0 1 0"/><feBlend in2="shape" result="effect1_innerShadow_428_1270"/><feColorMatrix in="SourceAlpha" values="0 0 0 0 0 0 0 0 0 0 0 0 0 0 0 0 0 0 127 0" result="hardAlpha"/><feOffset dy="-.389"/><feComposite in2="hardAlpha" operator="arithmetic" k2="-1" k3="1"/><feColorMatrix values="0 0 0 0 1 0 0 0 0 1 0 0 0 0 1 0 0 0 0.5 0"/><feBlend in2="effect1_innerShadow_428_1270" result="effect2_innerShadow_428_1270"/></filter></defs></svg>