<svg width="96" height="65" fill="none" xmlns="http://www.w3.org/2000/svg"><g filter="url(#filter0_ii_203_240)"><path d="M80 32.5C80 50.45 65.45 65 47.5 65S15 50.45 15 32.5 29.55 0 47.5 0 80 14.55 80 32.5zm-62.725 0c0 16.693 13.532 30.225 30.225 30.225S77.725 49.193 77.725 32.5 64.193 2.275 47.5 2.275 17.275 15.807 17.275 32.5z" fill="url(#paint0_linear_203_240)"/></g><g filter="url(#filter1_i_203_240)"><ellipse cx="48.5" cy="32" rx="30.5" ry="30" fill="#1AB0BF"/></g><path fill-rule="evenodd" clip-rule="evenodd" d="M24.041 18.773a1.09 1.09 0 01-.097.089l.097-.09z" fill="url(#paint1_linear_203_240)"/><path d="M48.5 4a28.653 28.653 0 00-24.556 13.806C23.296 18.97 22 21.59 22 22.76c.9-2.868 1.816-5.003 3.844-7.147-.422.86-1.27 2.615-1.803 3.16.923-.851 2.484-2.393 3.013-3.267-.366.857-1.112 2.285-2.191 3.518.88-.964 2.5-2.793 3.07-3.614-1.504 2.712-4.218 7.548-4.931 8.59l1.612-2.215A26.187 26.187 0 0148.5 6.436a26.187 26.187 0 0123.874 15.322l1.624 2.22c-.713-1.042-3.427-5.878-4.93-8.59.568.821 2.189 2.65 3.07 3.614-1.08-1.233-1.826-2.661-2.192-3.518.529.873 2.09 2.416 3.013 3.266-.533-.544-1.381-2.3-1.803-3.159 2.028 2.144 2.944 4.28 3.844 7.147 0-1.17-1.302-3.778-1.95-4.942A28.653 28.653 0 0048.5 4z" fill="url(#paint3_linear_203_240)"/><g filter="url(#filter2_ii_203_240)"><path fill-rule="evenodd" clip-rule="evenodd" d="M24.041 18.773a1.09 1.09 0 01-.097.089l.097-.09z" fill="url(#paint4_linear_203_240)"/><path d="M48.5 4a28.653 28.653 0 00-24.556 13.806C23.296 18.97 22 21.59 22 22.76c.9-2.868 1.816-5.003 3.844-7.147-.422.86-1.27 2.615-1.803 3.16.923-.851 2.484-2.393 3.013-3.267-.366.857-1.112 2.285-2.191 3.518.88-.964 2.5-2.793 3.07-3.614-1.504 2.712-4.218 7.548-4.931 8.59l1.612-2.215A26.187 26.187 0 0148.5 6.436a26.187 26.187 0 0123.874 15.322l1.624 2.22c-.713-1.042-3.427-5.878-4.93-8.59.568.821 2.189 2.65 3.07 3.614-1.08-1.233-1.826-2.661-2.192-3.518.529.873 2.09 2.416 3.013 3.266-.533-.544-1.381-2.3-1.803-3.159 2.028 2.144 2.944 4.28 3.844 7.147 0-1.17-1.302-3.778-1.95-4.942A28.653 28.653 0 0048.5 4z" fill="url(#paint6_linear_203_240)"/></g><g filter="url(#filter3_ii_203_240)"><path fill-rule="evenodd" clip-rule="evenodd" d="M24.041 46.227a1.09 1.09 0 00-.097-.089l.097.09z" fill="url(#paint7_linear_203_240)"/><path d="M48.5 61a28.653 28.653 0 01-24.556-13.806C23.296 46.03 22 43.41 22 42.24c.9 2.868 1.816 5.003 3.844 7.147-.422-.86-1.27-2.615-1.803-3.16.923.851 2.484 2.394 3.013 3.267-.366-.857-1.112-2.285-2.191-3.518.88.964 2.5 2.793 3.07 3.614-1.504-2.712-4.218-7.548-4.931-8.59l1.612 2.215A26.187 26.187 0 0048.5 58.564a26.187 26.187 0 0023.874-15.322l1.624-2.22c-.713 1.042-3.427 5.878-4.93 8.59.568-.821 2.189-2.65 3.07-3.614-1.08 1.233-1.826 2.661-2.192 3.518.529-.873 2.09-2.416 3.013-3.266-.533.544-1.381 2.3-1.803 3.159 2.028-2.144 2.944-4.28 3.844-7.146 0 1.169-1.302 3.777-1.95 4.94A28.653 28.653 0 0148.5 61z" fill="url(#paint9_linear_203_240)"/></g><path d="M3.414 39.526c2.07-1.8 2.283-4.316 2.816-4.858.853-.868 3.652-1.51 7.85.607 2.702 1.988 8.98 5.965 12.478 5.965 4.373 0 9.748-10.282 9.748-10.282 1.268 1.393-1.635 7.472-1.813 9.501-.478 5.432 3.526 4.88 5.588 3.926 5.615-3.644 3.904-5.704 2.688-4.468-2.286 2.325-3.329.195-2.944-1.193C42.77 28.117 43.267 22.022 41.383 22c-5.973 0-7.423 16.247-14.825 16.247-2.368 0-14.633-7.288-19.368-7.288-3.788 0-6.286 3.89-7.06 5.834-.726 2.582 1.764 4.057 3.284 2.733z" fill="url(#paint10_linear_203_240)"/><path d="M45.02 42.58c.752-8.98 7.656-23.813 11.014-30.108 1.07-2.006 3.572 2.795.92 6.657s-5.283 14.083-4.748 15.705c.33 1.003 3.386-2.596 5.368-4.801 3.56-5.326 7.101-3.116 6.438-1.302-.663 1.814-9.304 3.089-9.304 7.831 0 2.134 2.935 5.164 3.53 3.67 3.062-7.698 8.512-9.14 11.228-8.834 9.69 1.345 7.657 5.826 18.865 5.826 4.77 0 4.384-7.02 6.78-5.826 2.395 1.195-.171 10.072-6.224 10.072s-13.774-6.978-18.822-7.042c-5.047-.064-5.71 3.094-11.143 8.514-4.346 4.336-6.174.825-6.545-1.472 0-2.85-1.732-3.265-2.567-2.433-.92.918-.299 1.686-.299 4.225 0 1.976-4.855 2.006-4.492-.682z" fill="url(#paint11_linear_203_240)"/><defs><linearGradient id="paint0_linear_203_240" x1="47.5" y1="0" x2="47.5" y2="65" gradientUnits="userSpaceOnUse"><stop stop-color="#FDE69F"/><stop offset="1" stop-color="#D5B75E"/></linearGradient><linearGradient id="paint1_linear_203_240" x1="48.5" y1="4" x2="48.5" y2="24" gradientUnits="userSpaceOnUse"><stop stop-color="#FDE69F"/><stop offset="1" stop-color="#D5B75E"/></linearGradient><linearGradient id="paint2_linear_203_240" x1="48.5" y1="4" x2="48.5" y2="24" gradientUnits="userSpaceOnUse"><stop stop-color="#FDE69F"/><stop offset="1" stop-color="#D5B75E"/></linearGradient><linearGradient id="paint3_linear_203_240" x1="48.5" y1="4" x2="48.5" y2="24" gradientUnits="userSpaceOnUse"><stop stop-color="#FDE69F"/><stop offset="1" stop-color="#D5B75E"/></linearGradient><linearGradient id="paint4_linear_203_240" x1="48.5" y1="4" x2="48.5" y2="24" gradientUnits="userSpaceOnUse"><stop stop-color="#FDE69F"/><stop offset="1" stop-color="#D5B75E"/></linearGradient><linearGradient id="paint5_linear_203_240" x1="48.5" y1="4" x2="48.5" y2="24" gradientUnits="userSpaceOnUse"><stop stop-color="#FDE69F"/><stop offset="1" stop-color="#D5B75E"/></linearGradient><linearGradient id="paint6_linear_203_240" x1="48.5" y1="4" x2="48.5" y2="24" gradientUnits="userSpaceOnUse"><stop stop-color="#FDE69F"/><stop offset="1" stop-color="#D5B75E"/></linearGradient><linearGradient id="paint7_linear_203_240" x1="48.5" y1="61" x2="48.5" y2="41" gradientUnits="userSpaceOnUse"><stop stop-color="#FDE69F"/><stop offset="1" stop-color="#D5B75E"/></linearGradient><linearGradient id="paint8_linear_203_240" x1="48.5" y1="61" x2="48.5" y2="41" gradientUnits="userSpaceOnUse"><stop stop-color="#FDE69F"/><stop offset="1" stop-color="#D5B75E"/></linearGradient><linearGradient id="paint9_linear_203_240" x1="48.5" y1="61" x2="48.5" y2="41" gradientUnits="userSpaceOnUse"><stop stop-color="#FDE69F"/><stop offset="1" stop-color="#D5B75E"/></linearGradient><linearGradient id="paint10_linear_203_240" x1="22" y1="22" x2="22" y2="45" gradientUnits="userSpaceOnUse"><stop stop-color="#D5B75E"/><stop offset="1" stop-color="#FDE69F"/></linearGradient><linearGradient id="paint11_linear_203_240" x1="70.5" y1="12" x2="70.5" y2="45" gradientUnits="userSpaceOnUse"><stop stop-color="#D5B75E"/><stop offset="1" stop-color="#FDE69F"/></linearGradient><filter id="filter0_ii_203_240" x="15" y="0" width="65" height="65.389" filterUnits="userSpaceOnUse" color-interpolation-filters="sRGB"><feFlood flood-opacity="0" result="BackgroundImageFix"/><feBlend in="SourceGraphic" in2="BackgroundImageFix" result="shape"/><feColorMatrix in="SourceAlpha" values="0 0 0 0 0 0 0 0 0 0 0 0 0 0 0 0 0 0 127 0" result="hardAlpha"/><feOffset dy=".389"/><feGaussianBlur stdDeviation=".194"/><feComposite in2="hardAlpha" operator="arithmetic" k2="-1" k3="1"/><feColorMatrix values="0 0 0 0 1 0 0 0 0 1 0 0 0 0 1 0 0 0 1 0"/><feBlend in2="shape" result="effect1_innerShadow_203_240"/><feColorMatrix in="SourceAlpha" values="0 0 0 0 0 0 0 0 0 0 0 0 0 0 0 0 0 0 127 0" result="hardAlpha"/><feOffset dy=".389"/><feComposite in2="hardAlpha" operator="arithmetic" k2="-1" k3="1"/><feColorMatrix values="0 0 0 0 1 0 0 0 0 1 0 0 0 0 1 0 0 0 0.5 0"/><feBlend in2="effect1_innerShadow_203_240" result="effect2_innerShadow_203_240"/></filter><filter id="filter1_i_203_240" x="18" y="2" width="61" height="60" filterUnits="userSpaceOnUse" color-interpolation-filters="sRGB"><feFlood flood-opacity="0" result="BackgroundImageFix"/><feBlend in="SourceGraphic" in2="BackgroundImageFix" result="shape"/><feColorMatrix in="SourceAlpha" values="0 0 0 0 0 0 0 0 0 0 0 0 0 0 0 0 0 0 127 0" result="hardAlpha"/><feOffset/><feGaussianBlur stdDeviation="14.769"/><feComposite in2="hardAlpha" operator="arithmetic" k2="-1" k3="1"/><feColorMatrix values="0 0 0 0 0.0932813 0 0 0 0 0.73245 0 0 0 0 0.829167 0 0 0 0.57 0"/><feBlend in2="shape" result="effect1_innerShadow_203_240"/></filter><filter id="filter2_ii_203_240" x="22" y="4" width="53" height="20.389" filterUnits="userSpaceOnUse" color-interpolation-filters="sRGB"><feFlood flood-opacity="0" result="BackgroundImageFix"/><feBlend in="SourceGraphic" in2="BackgroundImageFix" result="shape"/><feColorMatrix in="SourceAlpha" values="0 0 0 0 0 0 0 0 0 0 0 0 0 0 0 0 0 0 127 0" result="hardAlpha"/><feOffset dy=".389"/><feGaussianBlur stdDeviation=".194"/><feComposite in2="hardAlpha" operator="arithmetic" k2="-1" k3="1"/><feColorMatrix values="0 0 0 0 1 0 0 0 0 1 0 0 0 0 1 0 0 0 1 0"/><feBlend in2="shape" result="effect1_innerShadow_203_240"/><feColorMatrix in="SourceAlpha" values="0 0 0 0 0 0 0 0 0 0 0 0 0 0 0 0 0 0 127 0" result="hardAlpha"/><feOffset dy="-.389"/><feComposite in2="hardAlpha" operator="arithmetic" k2="-1" k3="1"/><feColorMatrix values="0 0 0 0 1 0 0 0 0 1 0 0 0 0 1 0 0 0 0.5 0"/><feBlend in2="effect1_innerShadow_203_240" result="effect2_innerShadow_203_240"/></filter><filter id="filter3_ii_203_240" x="22" y="41" width="53" height="20.389" filterUnits="userSpaceOnUse" color-interpolation-filters="sRGB"><feFlood flood-opacity="0" result="BackgroundImageFix"/><feBlend in="SourceGraphic" in2="BackgroundImageFix" result="shape"/><feColorMatrix in="SourceAlpha" values="0 0 0 0 0 0 0 0 0 0 0 0 0 0 0 0 0 0 127 0" result="hardAlpha"/><feOffset dy=".389"/><feGaussianBlur stdDeviation=".194"/><feComposite in2="hardAlpha" operator="arithmetic" k2="-1" k3="1"/><feColorMatrix values="0 0 0 0 1 0 0 0 0 1 0 0 0 0 1 0 0 0 1 0"/><feBlend in2="shape" result="effect1_innerShadow_203_240"/><feColorMatrix in="SourceAlpha" values="0 0 0 0 0 0 0 0 0 0 0 0 0 0 0 0 0 0 127 0" result="hardAlpha"/><feOffset dy="-.389"/><feComposite in2="hardAlpha" operator="arithmetic" k2="-1" k3="1"/><feColorMatrix values="0 0 0 0 1 0 0 0 0 1 0 0 0 0 1 0 0 0 0.5 0"/><feBlend in2="effect1_innerShadow_203_240" result="effect2_innerShadow_203_240"/></filter></defs></svg>