<svg width="50" height="50" fill="none" xmlns="http://www.w3.org/2000/svg"><path d="M22.63 31.263H8.895a.894.894 0 110-1.79H22.63a.895.895 0 110 1.79z" fill="url(#paint0_linear_507_660)"/><path d="M22.63 20.526H8.895a.895.895 0 110-1.79H22.63a.895.895 0 110 1.79z" fill="url(#paint1_linear_507_660)"/><path d="M21.421 25.895H3.527a.894.894 0 110-1.79H21.42a.895.895 0 110 1.79z" fill="url(#paint2_linear_507_660)"/><path d="M30.368 28.491c-1.778 0-3.579-1.199-3.579-3.49 0-2.293 1.801-3.492 3.579-3.492 1.778 0 3.579 1.199 3.579 3.491s-1.801 3.491-3.579 3.491zm0-5.193c-.826 0-1.79.446-1.79 1.702s.964 1.702 1.79 1.702c.826 0 1.79-.446 1.79-1.702s-.964-1.702-1.79-1.702z" fill="url(#paint3_linear_507_660)"/><path d="M32.266 23.997a.894.894 0 01-.633-1.527l5.062-5.062a.894.894 0 111.265 1.265l-5.06 5.062a.892.892 0 01-.633.262z" fill="url(#paint4_linear_507_660)"/><path d="M27.206 29.058a.894.894 0 01-.633-1.527l1.265-1.266a.894.894 0 111.265 1.265l-1.265 1.266a.892.892 0 01-.633.262z" fill="url(#paint5_linear_507_660)"/><path d="M30.368 42a.895.895 0 01-.894-.895v-2.684a.895.895 0 111.79 0v2.684c0 .494-.4.895-.896.895z" fill="url(#paint6_linear_507_660)"/><path d="M41.757 37.283a.892.892 0 01-.633-.262l-1.898-1.899a.894.894 0 111.265-1.265l1.898 1.899a.894.894 0 01-.632 1.527z" fill="url(#paint7_linear_507_660)"/><path d="M39.858 16.405a.894.894 0 01-.633-1.527l1.898-1.899a.894.894 0 111.265 1.265l-1.898 1.899a.892.892 0 01-.632.262z" fill="url(#paint8_linear_507_660)"/><path d="M30.368 12.474a.895.895 0 01-.894-.895V8.895a.895.895 0 111.79 0v2.684c0 .494-.4.895-.896.895z" fill="url(#paint9_linear_507_660)"/><path d="M46.474 25.895h-2.685a.895.895 0 110-1.79h2.684a.895.895 0 110 1.79z" fill="url(#paint10_linear_507_660)"/><path d="M23.916 15.158h-9.653a.895.895 0 110-1.79h9.653a.895.895 0 110 1.79z" fill="url(#paint11_linear_507_660)"/><path d="M23.916 36.632h-9.653a.894.894 0 110-1.79h9.653a.895.895 0 110 1.79z" fill="url(#paint12_linear_507_660)"/><path d="M30.313 41.983c-2.622 0-5.271-.604-7.732-1.872a.895.895 0 01.82-1.59c7.018 3.616 15.76 1.193 19.903-5.517 4.154-6.729 2.416-15.64-3.957-20.286-4.616-3.364-10.876-3.85-15.946-1.24a.894.894 0 11-.82-1.59c5.666-2.92 12.66-2.377 17.82 1.383 7.123 5.193 9.068 15.153 4.425 22.673-3.177 5.148-8.777 8.039-14.513 8.039z" fill="url(#paint13_linear_507_660)"/><defs><linearGradient id="paint0_linear_507_660" x1="5.463" y1="29.764" x2="25.399" y2="35.491" gradientUnits="userSpaceOnUse"><stop stop-color="#049CB3"/><stop offset="1" stop-color="#34E4FF"/></linearGradient><linearGradient id="paint1_linear_507_660" x1="5.463" y1="19.028" x2="25.399" y2="24.754" gradientUnits="userSpaceOnUse"><stop stop-color="#049CB3"/><stop offset="1" stop-color="#34E4FF"/></linearGradient><linearGradient id="paint2_linear_507_660" x1="-.585" y1="24.396" x2="23.574" y2="33.194" gradientUnits="userSpaceOnUse"><stop stop-color="#049CB3"/><stop offset="1" stop-color="#34E4FF"/></linearGradient><linearGradient id="paint3_linear_507_660" x1="25.619" y1="22.643" x2="35.558" y2="22.981" gradientUnits="userSpaceOnUse"><stop stop-color="#049CB3"/><stop offset="1" stop-color="#34E4FF"/></linearGradient><linearGradient id="paint4_linear_507_660" x1="30.252" y1="18.259" x2="39.765" y2="18.574" gradientUnits="userSpaceOnUse"><stop stop-color="#049CB3"/><stop offset="1" stop-color="#34E4FF"/></linearGradient><linearGradient id="paint5_linear_507_660" x1="25.811" y1="26.499" x2="30.054" y2="26.64" gradientUnits="userSpaceOnUse"><stop stop-color="#049CB3"/><stop offset="1" stop-color="#34E4FF"/></linearGradient><linearGradient id="paint6_linear_507_660" x1="29.181" y1="38.253" x2="31.668" y2="38.286" gradientUnits="userSpaceOnUse"><stop stop-color="#049CB3"/><stop offset="1" stop-color="#34E4FF"/></linearGradient><linearGradient id="paint7_linear_507_660" x1="38.361" y1="34.194" x2="43.482" y2="34.364" gradientUnits="userSpaceOnUse"><stop stop-color="#049CB3"/><stop offset="1" stop-color="#34E4FF"/></linearGradient><linearGradient id="paint8_linear_507_660" x1="38.36" y1="13.316" x2="43.481" y2="13.486" gradientUnits="userSpaceOnUse"><stop stop-color="#049CB3"/><stop offset="1" stop-color="#34E4FF"/></linearGradient><linearGradient id="paint9_linear_507_660" x1="29.181" y1="8.727" x2="31.668" y2="8.76" gradientUnits="userSpaceOnUse"><stop stop-color="#049CB3"/><stop offset="1" stop-color="#34E4FF"/></linearGradient><linearGradient id="paint10_linear_507_660" x1="42.163" y1="24.396" x2="48.34" y2="24.907" gradientUnits="userSpaceOnUse"><stop stop-color="#049CB3"/><stop offset="1" stop-color="#34E4FF"/></linearGradient><linearGradient id="paint11_linear_507_660" x1="11.498" y1="13.659" x2="26.723" y2="16.882" gradientUnits="userSpaceOnUse"><stop stop-color="#049CB3"/><stop offset="1" stop-color="#34E4FF"/></linearGradient><linearGradient id="paint12_linear_507_660" x1="11.498" y1="35.133" x2="26.723" y2="38.356" gradientUnits="userSpaceOnUse"><stop stop-color="#049CB3"/><stop offset="1" stop-color="#34E4FF"/></linearGradient><linearGradient id="paint13_linear_507_660" x1="17.97" y1="13.541" x2="53.049" y2="14.404" gradientUnits="userSpaceOnUse"><stop stop-color="#049CB3"/><stop offset="1" stop-color="#34E4FF"/></linearGradient></defs></svg>